<svg xmlns="http://www.w3.org/2000/svg" width="16.439" height="20.162" viewBox="0 0 16.439 20.162">
  <path id="icons8-apple-logo" d="M19.655,7.233A4.555,4.555,0,0,0,17.43,11.1a4.555,4.555,0,0,0,2.739,4.048,10.871,10.871,0,0,1-1.42,2.874c-.816,1.242-1.722,2.494-3.1,2.494-1.308,0-1.778-.828-3.288-.828-1.621,0-2.08.828-3.321.828-1.376,0-2.348-1.319-3.209-2.55a12.566,12.566,0,0,1-2.1-6.564,6.919,6.919,0,0,1,.85-3.623,5.055,5.055,0,0,1,4.182-2.55c1.319-.044,2.494.906,3.3.906.772,0,2.214-.906,3.847-.906A4.485,4.485,0,0,1,19.655,7.233Zm-7.7-2.259a3.982,3.982,0,0,1,1.017-3.1A4.292,4.292,0,0,1,16.009.356a4.378,4.378,0,0,1-1.118,3.165A3.436,3.436,0,0,1,11.95,4.974Z" transform="translate(-3.73 -0.356)"/>
</svg>
