<svg xmlns="http://www.w3.org/2000/svg" width="20.162" height="20.162" viewBox="0 0 20.162 20.162">
  <g id="icons8-facebook" transform="translate(-5 -5)">
    <path id="Tracé_5" data-name="Tracé 5" d="M15.081,5A10.081,10.081,0,1,0,25.162,15.081,10.081,10.081,0,0,0,15.081,5Z" fill="#039be5"/>
    <path id="Tracé_6" data-name="Tracé 6" d="M21.824,21.415h2.609l.41-2.65H21.823V17.316c0-1.1.36-2.077,1.39-2.077h1.655V12.926A14.057,14.057,0,0,0,22.8,12.8c-2.426,0-3.849,1.281-3.849,4.2v1.763H16.457v2.65h2.494V28.7a9.141,9.141,0,0,0,2.873.022Z" transform="translate(-5.378 -3.662)" fill="#fff"/>
  </g>
</svg>
