<svg xmlns="http://www.w3.org/2000/svg" width="20.162" height="20.162" viewBox="0 0 20.162 20.162">
  <g id="icons8-google" transform="translate(-4 -4)">
    <path id="Tracé_1" data-name="Tracé 1" d="M23.966,12.107h-.812v-.042H14.081V16.1h5.7a6.053,6.053,0,1,1-1.685-6.533l2.851-2.851a10.07,10.07,0,1,0,3.217,7.368A10.149,10.149,0,0,0,23.966,12.107Z" fill="#ffc107"/>
    <path id="Tracé_2" data-name="Tracé 2" d="M6.306,9.389l3.312,2.429a6.036,6.036,0,0,1,9.619-2.254l2.851-2.851A10.061,10.061,0,0,0,6.306,9.389Z" transform="translate(-1.144)" fill="#ff3d00"/>
    <path id="Tracé_3" data-name="Tracé 3" d="M15.169,36.091a10.034,10.034,0,0,0,6.759-2.617l-3.12-2.64a6.033,6.033,0,0,1-9.326-2.78L6.2,30.587A10.073,10.073,0,0,0,15.169,36.091Z" transform="translate(-1.089 -11.93)" fill="#4caf50"/>
    <path id="Tracé_4" data-name="Tracé 4" d="M33.885,20.042h-.812V20H24v4.032h5.7a6.069,6.069,0,0,1-2.06,2.808h0l3.12,2.64a9.752,9.752,0,0,0,3.322-7.463A10.149,10.149,0,0,0,33.885,20.042Z" transform="translate(-9.919 -7.935)" fill="#1976d2"/>
  </g>
</svg>
